<svg width="600" height="150" viewBox="0 0 600 150" xmlns="http://www.w3.org/2000/svg">
  <defs>
    <filter id="shadow2" x="-2%" y="-2%" width="104%" height="108%">
      <feDropShadow dx="0" dy="2" stdDeviation="3" flood-opacity="0.1" />
    </filter>
    <linearGradient id="fillGrad" x1="0" y1="0" x2="0" y2="1">
      <stop offset="0%" stop-color="#0366d6" stop-opacity="0.3"/>
      <stop offset="100%" stop-color="#0366d6" stop-opacity="0.02"/>
    </linearGradient>
  </defs>
  <rect width="600" height="150" rx="12" fill="#ffffff" filter="url(#shadow2)" stroke="#e1e4e8" stroke-width="1"/>
  <text x="20" y="24" fill="#2b3137" font-family="-apple-system,BlinkMacSystemFont,'Segoe UI',Helvetica,Arial,sans-serif" font-size="14" font-weight="600">📈 Download Growth (Actual: 103.0k)</text>
  
  <!-- Area sotto la linea -->
  <polygon fill="url(#fillGrad)" points="30.0,61.6,120 30.0,61.6 35.3,61.5 40.6,61.3 45.9,61.3 51.2,61.2 56.5,61.2 61.8,61.1 67.1,61.0 72.4,60.9 77.6,60.8 82.9,60.8 88.2,60.7 93.5,60.7 98.8,60.6 104.1,35.2 109.4,35.1 114.7,35.1 120.0,120.0 125.3,35.0 130.6,35.0 135.9,35.0 141.2,34.9 146.5,34.9 151.8,34.9 157.1,34.9 162.4,34.8 167.6,34.8 172.9,34.8 178.2,34.7 183.5,34.7 188.8,34.6 194.1,34.5 199.4,34.5 204.7,34.5 210.0,34.4 215.3,34.4 220.6,34.4 225.9,34.4 231.2,34.3 236.5,34.3 241.8,34.2 247.1,34.2 252.4,34.1 257.6,34.1 262.9,34.0 268.2,34.0 273.5,33.9 278.8,33.9 284.1,33.9 289.4,33.8 294.7,33.8 300.0,33.8 305.3,33.7 310.6,33.7 315.9,33.6 321.2,33.6 326.5,33.5 331.8,33.5 337.1,33.5 342.4,33.5 347.6,33.4 352.9,33.4 358.2,33.4 363.5,33.4 368.8,33.3 374.1,33.3 379.4,33.2 384.7,33.2 390.0,33.2 395.3,33.1 400.6,33.1 405.9,33.1 411.2,33.1 416.5,33.0 421.8,33.0 427.1,33.0 432.4,32.9 437.6,32.9 442.9,32.9 448.2,32.7 453.5,32.5 458.8,32.4 464.1,32.2 469.4,32.1 474.7,32.1 480.0,32.0 485.3,31.9 490.6,31.8 495.9,31.6 501.2,31.5 506.5,31.5 511.8,31.3 517.1,31.1 522.4,31.0 527.6,30.8 532.9,30.7 538.2,30.7 543.5,30.6 548.8,30.5 554.1,30.4 559.4,30.2 564.7,30.1 570.0,30.0 570.0,30.0,120" />
  
  <!-- Linea principale -->
  <polyline fill="none" stroke="#0366d6" stroke-width="2.5" stroke-linecap="round" stroke-linejoin="round" points="30.0,61.6 35.3,61.5 40.6,61.3 45.9,61.3 51.2,61.2 56.5,61.2 61.8,61.1 67.1,61.0 72.4,60.9 77.6,60.8 82.9,60.8 88.2,60.7 93.5,60.7 98.8,60.6 104.1,35.2 109.4,35.1 114.7,35.1 120.0,120.0 125.3,35.0 130.6,35.0 135.9,35.0 141.2,34.9 146.5,34.9 151.8,34.9 157.1,34.9 162.4,34.8 167.6,34.8 172.9,34.8 178.2,34.7 183.5,34.7 188.8,34.6 194.1,34.5 199.4,34.5 204.7,34.5 210.0,34.4 215.3,34.4 220.6,34.4 225.9,34.4 231.2,34.3 236.5,34.3 241.8,34.2 247.1,34.2 252.4,34.1 257.6,34.1 262.9,34.0 268.2,34.0 273.5,33.9 278.8,33.9 284.1,33.9 289.4,33.8 294.7,33.8 300.0,33.8 305.3,33.7 310.6,33.7 315.9,33.6 321.2,33.6 326.5,33.5 331.8,33.5 337.1,33.5 342.4,33.5 347.6,33.4 352.9,33.4 358.2,33.4 363.5,33.4 368.8,33.3 374.1,33.3 379.4,33.2 384.7,33.2 390.0,33.2 395.3,33.1 400.6,33.1 405.9,33.1 411.2,33.1 416.5,33.0 421.8,33.0 427.1,33.0 432.4,32.9 437.6,32.9 442.9,32.9 448.2,32.7 453.5,32.5 458.8,32.4 464.1,32.2 469.4,32.1 474.7,32.1 480.0,32.0 485.3,31.9 490.6,31.8 495.9,31.6 501.2,31.5 506.5,31.5 511.8,31.3 517.1,31.1 522.4,31.0 527.6,30.8 532.9,30.7 538.2,30.7 543.5,30.6 548.8,30.5 554.1,30.4 559.4,30.2 564.7,30.1 570.0,30.0" />
  
  <!-- Punto finale luminoso -->
  <circle cx="570.0" cy="30.0" r="4" fill="#ffffff" stroke="#0366d6" stroke-width="2.5" />
</svg>