<svg width="600" height="150" viewBox="0 0 600 150" xmlns="http://www.w3.org/2000/svg">
  <defs>
    <filter id="shadow2" x="-2%" y="-2%" width="104%" height="108%">
      <feDropShadow dx="0" dy="2" stdDeviation="3" flood-opacity="0.1" />
    </filter>
    <linearGradient id="fillGrad" x1="0" y1="0" x2="0" y2="1">
      <stop offset="0%" stop-color="#0366d6" stop-opacity="0.3"/>
      <stop offset="100%" stop-color="#0366d6" stop-opacity="0.02"/>
    </linearGradient>
  </defs>
  <rect width="600" height="150" rx="12" fill="#ffffff" filter="url(#shadow2)" stroke="#e1e4e8" stroke-width="1"/>
  <text x="20" y="24" fill="#2b3137" font-family="-apple-system,BlinkMacSystemFont,'Segoe UI',Helvetica,Arial,sans-serif" font-size="14" font-weight="600">📈 Download Growth (Actual: 119.6k)</text>
  
  <!-- Area sotto la linea -->
  <polygon fill="url(#fillGrad)" points="30.0,69.7,120 30.0,69.7 30.6,69.6 31.1,69.5 31.7,69.4 32.2,69.4 32.8,69.3 33.4,69.2 33.9,69.2 34.5,69.1 35.1,69.0 35.6,69.0 36.2,68.9 36.7,68.9 37.3,68.9 37.9,68.8 38.4,68.7 39.0,68.7 39.6,68.6 40.1,68.6 40.7,68.6 41.2,68.5 41.8,68.5 42.4,68.4 42.9,68.4 43.5,68.2 44.0,68.2 44.6,68.1 45.2,68.1 45.7,68.0 46.3,67.9 46.9,67.9 47.4,67.9 48.0,67.8 48.5,67.8 49.1,67.7 49.7,67.7 50.2,67.6 50.8,67.6 51.4,67.6 51.9,67.5 52.5,67.5 53.0,67.5 53.6,67.4 54.2,67.4 54.7,67.3 55.3,67.3 55.8,67.3 56.4,67.2 57.0,67.2 57.5,67.1 58.1,67.0 58.7,67.0 59.2,66.9 59.8,66.9 60.3,66.9 60.9,66.8 61.5,66.8 62.0,66.7 62.6,66.7 63.2,66.7 63.7,66.6 64.3,66.6 64.8,66.5 65.4,66.4 66.0,66.4 66.5,66.3 67.1,66.3 67.6,66.3 68.2,66.2 68.8,66.2 69.3,66.2 69.9,66.2 70.5,66.1 71.0,66.1 71.6,66.1 72.1,66.1 72.7,66.1 73.3,66.0 73.8,65.9 74.4,65.9 75.0,65.9 75.5,65.9 76.1,65.9 76.6,67.0 77.2,66.9 77.8,66.8 78.3,66.7 78.9,66.4 79.4,66.2 80.0,66.0 80.6,65.9 81.1,65.8 81.7,65.6 82.3,65.5 82.8,65.4 83.4,65.3 83.9,65.3 84.5,65.1 85.1,65.1 85.6,65.0 86.2,64.9 86.8,64.9 87.3,64.9 87.9,64.8 88.4,64.7 89.0,64.7 89.6,64.6 90.1,64.5 90.7,64.5 91.2,64.4 91.8,64.4 92.4,64.3 92.9,64.2 93.5,64.2 94.1,64.2 94.6,64.2 95.2,64.1 95.7,64.1 96.3,64.0 96.9,64.0 97.4,64.0 98.0,63.9 98.6,63.9 99.1,63.9 99.7,63.9 100.2,63.8 100.8,63.8 101.4,63.7 101.9,63.7 102.5,63.6 103.0,63.6 103.6,63.6 104.2,63.6 104.7,63.5 105.3,63.5 105.9,63.4 106.4,63.4 107.0,63.3 107.5,63.3 108.1,63.3 108.7,63.3 109.2,63.2 109.8,63.2 110.4,63.1 110.9,63.1 111.5,63.1 112.0,63.1 112.6,63.0 113.2,63.0 113.7,63.0 114.3,63.0 114.8,62.9 115.4,62.9 116.0,62.9 116.5,62.9 117.1,62.8 117.7,62.8 118.2,62.8 118.8,62.7 119.3,62.7 119.9,62.7 120.5,62.6 121.0,62.6 121.6,62.6 122.2,62.5 122.7,62.5 123.3,62.5 123.8,62.4 124.4,62.4 125.0,62.4 125.5,62.3 126.1,62.3 126.6,62.3 127.2,62.3 127.8,62.2 128.3,62.2 128.9,62.2 129.5,62.2 130.0,62.1 130.6,62.1 131.1,62.1 131.7,62.1 132.3,62.0 132.8,62.0 133.4,62.0 134.0,62.0 134.5,61.9 135.1,61.9 135.6,61.9 136.2,61.9 136.8,61.9 137.3,61.8 137.9,61.8 138.4,61.7 139.0,61.7 139.6,61.7 140.1,61.7 140.7,61.6 141.3,61.6 141.8,61.6 142.4,61.6 142.9,61.5 143.5,61.5 144.1,61.5 144.6,61.5 145.2,61.4 145.8,61.4 146.3,61.4 146.9,61.3 147.4,61.3 148.0,61.3 148.6,61.3 149.1,61.3 149.7,61.2 150.2,61.2 150.8,61.2 151.4,61.2 151.9,61.1 152.5,61.1 153.1,61.1 153.6,61.1 154.2,61.1 154.7,61.0 155.3,61.0 155.9,61.0 156.4,60.9 157.0,60.9 157.6,60.9 158.1,60.9 158.7,60.9 159.2,60.9 159.8,60.8 160.4,60.8 160.9,60.8 161.5,60.7 162.0,60.7 162.6,60.7 163.2,60.7 163.7,60.7 164.3,60.6 164.9,60.6 165.4,60.6 166.0,60.6 166.5,60.5 167.1,60.5 167.7,60.5 168.2,60.5 168.8,60.5 169.4,60.5 169.9,60.4 170.5,60.4 171.0,60.4 171.6,60.4 172.2,60.3 172.7,60.3 173.3,61.0 173.9,60.9 174.4,60.6 175.0,60.5 175.5,60.4 176.1,60.2 176.7,60.1 177.2,60.1 177.8,60.0 178.3,59.8 178.9,59.7 179.5,59.7 180.0,59.6 180.6,59.6 181.2,59.5 181.7,59.4 182.3,59.3 182.8,59.3 183.4,59.2 184.0,59.2 184.5,59.1 185.1,59.1 185.7,59.1 186.2,59.0 186.8,58.9 187.3,58.9 187.9,58.8 188.5,58.7 189.0,58.7 189.6,58.6 190.1,58.6 190.7,58.6 191.3,58.5 191.8,58.4 192.4,58.4 193.0,58.3 193.5,58.1 194.1,58.1 194.6,58.1 195.2,58.0 195.8,57.9 196.3,57.9 196.9,57.8 197.5,57.8 198.0,57.7 198.6,57.7 199.1,57.6 199.7,57.6 200.3,57.5 200.8,57.5 201.4,57.5 201.9,57.4 202.5,57.4 203.1,57.3 203.6,57.3 204.2,57.3 204.8,57.2 205.3,57.2 205.9,57.2 206.4,57.1 207.0,57.1 207.6,57.1 208.1,57.1 208.7,57.0 209.3,57.0 209.8,56.9 210.4,56.9 210.9,56.8 211.5,56.8 212.1,56.8 212.6,56.7 213.2,56.7 213.7,56.7 214.3,56.7 214.9,56.6 215.4,56.6 216.0,56.6 216.6,56.5 217.1,56.5 217.7,56.5 218.2,56.5 218.8,56.4 219.4,56.3 219.9,56.3 220.5,56.3 221.1,56.2 221.6,56.2 222.2,56.2 222.7,56.1 223.3,56.1 223.9,56.1 224.4,56.1 225.0,56.0 225.5,56.0 226.1,56.0 226.7,55.9 227.2,55.9 227.8,55.9 228.4,55.8 228.9,55.8 229.5,55.8 230.0,55.7 230.6,55.7 231.2,55.6 231.7,55.6 232.3,55.6 232.9,55.6 233.4,55.5 234.0,55.5 234.5,55.5 235.1,55.4 235.7,55.4 236.2,55.4 236.8,55.4 237.3,55.3 237.9,55.3 238.5,55.3 239.0,55.3 239.6,55.3 240.2,55.2 240.7,55.2 241.3,55.2 241.8,55.2 242.4,55.1 243.0,55.1 243.5,55.1 244.1,55.0 244.7,55.0 245.2,55.0 245.8,54.9 246.3,54.9 246.9,54.9 247.5,54.9 248.0,54.8 248.6,54.8 249.1,54.8 249.7,54.8 250.3,54.7 250.8,54.7 251.4,54.7 252.0,54.6 252.5,54.6 253.1,54.6 253.6,54.6 254.2,54.5 254.8,54.5 255.3,54.5 255.9,54.4 256.5,54.4 257.0,54.4 257.6,54.3 258.1,54.3 258.7,54.3 259.3,54.2 259.8,54.2 260.4,54.2 260.9,54.1 261.5,54.1 262.1,54.1 262.6,54.0 263.2,54.0 263.8,54.0 264.3,54.0 264.9,53.9 265.4,53.9 266.0,53.9 266.6,53.8 267.1,53.8 267.7,53.8 268.3,53.8 268.8,53.7 269.4,53.7 269.9,53.7 270.5,53.7 271.1,53.6 271.6,53.6 272.2,53.6 272.7,53.6 273.3,53.6 273.9,53.5 274.4,53.5 275.0,53.5 275.6,53.5 276.1,53.4 276.7,53.4 277.2,53.4 277.8,53.4 278.4,53.4 278.9,53.3 279.5,55.6 280.1,55.4 280.6,55.2 281.2,55.1 281.7,55.0 282.3,54.9 282.9,54.7 283.4,54.6 284.0,54.4 284.5,54.4 285.1,54.2 285.7,54.2 286.2,54.1 286.8,54.0 287.4,53.9 287.9,53.9 288.5,53.8 289.0,53.7 289.6,53.6 290.2,53.5 290.7,53.4 291.3,53.4 291.9,53.4 292.4,53.3 293.0,53.3 293.5,53.2 294.1,53.2 294.7,53.2 295.2,53.2 295.8,53.2 296.3,53.2 296.9,53.2 297.5,53.1 298.0,53.1 298.6,53.0 299.2,53.0 299.7,52.9 300.3,52.9 300.8,52.9 301.4,52.8 302.0,52.8 302.5,52.8 303.1,52.7 303.7,52.7 304.2,52.6 304.8,52.6 305.3,52.5 305.9,52.5 306.5,52.5 307.0,52.4 307.6,52.4 308.1,52.4 308.7,52.4 309.3,52.3 309.8,52.3 310.4,52.2 311.0,52.2 311.5,52.2 312.1,52.1 312.6,52.1 313.2,52.1 313.8,52.0 314.3,52.0 314.9,52.0 315.5,52.0 316.0,51.9 316.6,51.9 317.1,51.9 317.7,51.8 318.3,51.8 318.8,51.8 319.4,51.7 319.9,51.7 320.5,51.7 321.1,51.6 321.6,51.6 322.2,51.6 322.8,51.6 323.3,51.6 323.9,51.5 324.4,51.5 325.0,51.5 325.6,51.4 326.1,51.4 326.7,51.4 327.3,51.4 327.8,51.3 328.4,51.3 328.9,51.3 329.5,51.3 330.1,51.2 330.6,51.2 331.2,51.2 331.7,51.2 332.3,51.1 332.9,51.1 333.4,51.1 334.0,51.1 334.6,51.0 335.1,51.0 335.7,51.0 336.2,51.0 336.8,50.9 337.4,50.9 337.9,50.9 338.5,50.8 339.1,50.8 339.6,50.8 340.2,50.7 340.7,50.7 341.3,50.7 341.9,50.7 342.4,50.7 343.0,50.6 343.5,50.6 344.1,50.6 344.7,50.5 345.2,50.4 345.8,50.4 346.4,50.4 346.9,50.4 347.5,50.3 348.0,50.3 348.6,50.3 349.2,50.3 349.7,50.2 350.3,50.2 350.9,50.2 351.4,50.2 352.0,50.2 352.5,50.2 353.1,50.1 353.7,50.1 354.2,50.1 354.8,50.1 355.3,50.1 355.9,50.1 356.5,50.1 357.0,50.1 357.6,50.0 358.2,50.0 358.7,50.0 359.3,50.0 359.8,49.9 360.4,49.9 361.0,49.9 361.5,49.9 362.1,49.9 362.7,49.9 363.2,49.9 363.8,49.8 364.3,49.8 364.9,49.8 365.5,49.8 366.0,49.8 366.6,49.8 367.1,49.7 367.7,49.7 368.3,49.7 368.8,49.7 369.4,49.7 370.0,49.7 370.5,49.6 371.1,49.6 371.6,49.6 372.2,49.6 372.8,49.6 373.3,49.6 373.9,49.6 374.5,49.6 375.0,49.6 375.6,49.5 376.1,49.5 376.7,49.5 377.3,49.5 377.8,49.5 378.4,50.1 378.9,50.0 379.5,49.8 380.1,49.7 380.6,49.6 381.2,49.5 381.8,49.4 382.3,49.3 382.9,49.2 383.4,49.0 384.0,49.0 384.6,48.9 385.1,48.9 385.7,48.8 386.3,48.7 386.8,48.7 387.4,48.7 387.9,48.6 388.5,48.6 389.1,48.5 389.6,48.5 390.2,48.4 390.7,48.4 391.3,48.3 391.9,48.3 392.4,48.2 393.0,48.2 393.6,48.2 394.1,48.1 394.7,48.1 395.2,48.1 395.8,48.0 396.4,48.0 396.9,47.9 397.5,47.9 398.1,47.8 398.6,47.8 399.2,47.8 399.7,47.7 400.3,47.7 400.9,47.7 401.4,47.7 402.0,47.6 402.5,47.6 403.1,47.6 403.7,47.5 404.2,47.5 404.8,47.4 405.4,47.4 405.9,47.4 406.5,47.3 407.0,47.3 407.6,47.3 408.2,47.3 408.7,47.2 409.3,47.2 409.9,47.2 410.4,47.1 411.0,47.1 411.5,47.1 412.1,47.0 412.7,47.0 413.2,47.0 413.8,47.0 414.3,47.0 414.9,46.9 415.5,46.9 416.0,46.9 416.6,120.0 417.2,46.8 417.7,46.8 418.3,46.7 418.8,46.7 419.4,46.7 420.0,46.7 420.5,46.7 421.1,46.6 421.7,46.6 422.2,46.5 422.8,46.5 423.3,46.4 423.9,46.4 424.5,46.4 425.0,46.3 425.6,46.3 426.1,46.3 426.7,46.3 427.3,46.2 427.8,46.2 428.4,46.2 429.0,46.1 429.5,46.1 430.1,46.0 430.6,46.0 431.2,45.9 431.8,45.9 432.3,45.9 432.9,45.9 433.5,45.8 434.0,45.8 434.6,45.8 435.1,45.7 435.7,45.7 436.3,45.7 436.8,45.6 437.4,45.6 438.0,45.5 438.5,45.5 439.1,45.5 439.6,45.5 440.2,45.5 440.8,45.4 441.3,45.4 441.9,45.4 442.4,45.4 443.0,45.3 443.6,45.3 444.1,45.2 444.7,45.2 445.3,45.2 445.8,45.2 446.4,45.2 446.9,45.1 447.5,45.1 448.1,45.1 448.6,45.1 449.2,45.0 449.8,45.0 450.3,45.1 450.9,44.8 451.4,44.7 452.0,44.5 452.6,44.4 453.1,44.3 453.7,44.3 454.2,44.2 454.8,44.1 455.4,44.0 455.9,43.9 456.5,43.8 457.1,43.9 457.6,43.6 458.2,43.5 458.7,43.3 459.3,43.2 459.9,43.1 460.4,43.1 461.0,43.0 461.6,42.9 462.1,42.8 462.7,42.7 463.2,42.6 463.8,42.5 464.4,42.4 464.9,42.4 465.5,42.3 466.0,42.3 466.6,42.2 467.2,42.2 467.7,42.1 468.3,42.1 468.9,42.0 469.4,41.9 470.0,41.8 470.5,41.8 471.1,41.7 471.7,41.6 472.2,41.6 472.8,41.5 473.4,41.5 473.9,41.5 474.5,41.4 475.0,41.4 475.6,41.3 476.2,41.7 476.7,41.5 477.3,41.2 477.8,41.1 478.4,40.9 479.0,40.6 479.5,40.1 480.1,41.6 480.7,40.9 481.2,40.5 481.8,40.3 482.3,40.1 482.9,39.9 483.5,39.7 484.0,39.6 484.6,39.5 485.2,39.3 485.7,39.0 486.3,38.9 486.8,38.8 487.4,38.6 488.0,38.5 488.5,38.3 489.1,37.9 489.6,37.8 490.2,37.7 490.8,37.6 491.3,37.5 491.9,37.4 492.5,37.4 493.0,37.3 493.6,37.3 494.1,37.2 494.7,37.1 495.3,37.1 495.8,37.0 496.4,37.0 497.0,37.0 497.5,36.9 498.1,36.8 498.6,36.8 499.2,36.7 499.8,36.7 500.3,36.7 500.9,36.6 501.4,36.5 502.0,36.5 502.6,36.4 503.1,36.4 503.7,36.4 504.3,36.3 504.8,36.3 505.4,36.2 505.9,36.2 506.5,36.1 507.1,36.1 507.6,36.1 508.2,36.0 508.8,36.0 509.3,35.9 509.9,35.9 510.4,35.9 511.0,35.8 511.6,35.8 512.1,35.8 512.7,35.8 513.2,35.7 513.8,35.6 514.4,35.6 514.9,35.6 515.5,35.5 516.1,35.5 516.6,35.4 517.2,35.3 517.7,35.3 518.3,35.3 518.9,35.3 519.4,35.2 520.0,35.2 520.6,35.1 521.1,35.1 521.7,35.1 522.2,35.0 522.8,35.0 523.4,34.9 523.9,34.9 524.5,34.9 525.0,34.9 525.6,34.8 526.2,37.0 526.7,36.6 527.3,36.4 527.9,36.2 528.4,36.1 529.0,36.0 529.5,35.8 530.1,35.7 530.7,35.6 531.2,35.5 531.8,35.5 532.4,35.4 532.9,35.4 533.5,35.3 534.0,35.2 534.6,35.0 535.2,35.0 535.7,34.9 536.3,34.9 536.8,34.8 537.4,34.7 538.0,34.6 538.5,34.4 539.1,34.4 539.7,34.3 540.2,34.2 540.8,34.1 541.3,34.0 541.9,33.9 542.5,33.9 543.0,33.8 543.6,33.7 544.2,33.7 544.7,33.6 545.3,33.6 545.8,33.5 546.4,33.5 547.0,33.4 547.5,33.3 548.1,33.3 548.6,33.2 549.2,33.2 549.8,33.1 550.3,33.0 550.9,33.0 551.5,33.6 552.0,33.5 552.6,33.4 553.1,33.2 553.7,32.9 554.3,32.6 554.8,32.4 555.4,32.4 556.0,32.3 556.5,32.3 557.1,32.1 557.6,31.9 558.2,31.8 558.8,31.7 559.3,31.6 559.9,31.6 560.4,31.5 561.0,31.4 561.6,31.2 562.1,31.1 562.7,31.0 563.3,30.9 563.8,30.8 564.4,30.7 564.9,30.7 565.5,30.6 566.1,30.5 566.6,30.4 567.2,30.3 567.8,30.3 568.3,30.2 568.9,30.1 569.4,30.0 570.0,30.0 570.0,30.0,120" />
  
  <!-- Linea principale -->
  <polyline fill="none" stroke="#0366d6" stroke-width="2.5" stroke-linecap="round" stroke-linejoin="round" points="30.0,69.7 30.6,69.6 31.1,69.5 31.7,69.4 32.2,69.4 32.8,69.3 33.4,69.2 33.9,69.2 34.5,69.1 35.1,69.0 35.6,69.0 36.2,68.9 36.7,68.9 37.3,68.9 37.9,68.8 38.4,68.7 39.0,68.7 39.6,68.6 40.1,68.6 40.7,68.6 41.2,68.5 41.8,68.5 42.4,68.4 42.9,68.4 43.5,68.2 44.0,68.2 44.6,68.1 45.2,68.1 45.7,68.0 46.3,67.9 46.9,67.9 47.4,67.9 48.0,67.8 48.5,67.8 49.1,67.7 49.7,67.7 50.2,67.6 50.8,67.6 51.4,67.6 51.9,67.5 52.5,67.5 53.0,67.5 53.6,67.4 54.2,67.4 54.7,67.3 55.3,67.3 55.8,67.3 56.4,67.2 57.0,67.2 57.5,67.1 58.1,67.0 58.7,67.0 59.2,66.9 59.8,66.9 60.3,66.9 60.9,66.8 61.5,66.8 62.0,66.7 62.6,66.7 63.2,66.7 63.7,66.6 64.3,66.6 64.8,66.5 65.4,66.4 66.0,66.4 66.5,66.3 67.1,66.3 67.6,66.3 68.2,66.2 68.8,66.2 69.3,66.2 69.9,66.2 70.5,66.1 71.0,66.1 71.6,66.1 72.1,66.1 72.7,66.1 73.3,66.0 73.8,65.9 74.4,65.9 75.0,65.9 75.5,65.9 76.1,65.9 76.6,67.0 77.2,66.9 77.8,66.8 78.3,66.7 78.9,66.4 79.4,66.2 80.0,66.0 80.6,65.9 81.1,65.8 81.7,65.6 82.3,65.5 82.8,65.4 83.4,65.3 83.9,65.3 84.5,65.1 85.1,65.1 85.6,65.0 86.2,64.9 86.8,64.9 87.3,64.9 87.9,64.8 88.4,64.7 89.0,64.7 89.6,64.6 90.1,64.5 90.7,64.5 91.2,64.4 91.8,64.4 92.4,64.3 92.9,64.2 93.5,64.2 94.1,64.2 94.6,64.2 95.2,64.1 95.7,64.1 96.3,64.0 96.9,64.0 97.4,64.0 98.0,63.9 98.6,63.9 99.1,63.9 99.7,63.9 100.2,63.8 100.8,63.8 101.4,63.7 101.9,63.7 102.5,63.6 103.0,63.6 103.6,63.6 104.2,63.6 104.7,63.5 105.3,63.5 105.9,63.4 106.4,63.4 107.0,63.3 107.5,63.3 108.1,63.3 108.7,63.3 109.2,63.2 109.8,63.2 110.4,63.1 110.9,63.1 111.5,63.1 112.0,63.1 112.6,63.0 113.2,63.0 113.7,63.0 114.3,63.0 114.8,62.9 115.4,62.9 116.0,62.9 116.5,62.9 117.1,62.8 117.7,62.8 118.2,62.8 118.8,62.7 119.3,62.7 119.9,62.7 120.5,62.6 121.0,62.6 121.6,62.6 122.2,62.5 122.7,62.5 123.3,62.5 123.8,62.4 124.4,62.4 125.0,62.4 125.5,62.3 126.1,62.3 126.6,62.3 127.2,62.3 127.8,62.2 128.3,62.2 128.9,62.2 129.5,62.2 130.0,62.1 130.6,62.1 131.1,62.1 131.7,62.1 132.3,62.0 132.8,62.0 133.4,62.0 134.0,62.0 134.5,61.9 135.1,61.9 135.6,61.9 136.2,61.9 136.8,61.9 137.3,61.8 137.9,61.8 138.4,61.7 139.0,61.7 139.6,61.7 140.1,61.7 140.7,61.6 141.3,61.6 141.8,61.6 142.4,61.6 142.9,61.5 143.5,61.5 144.1,61.5 144.6,61.5 145.2,61.4 145.8,61.4 146.3,61.4 146.9,61.3 147.4,61.3 148.0,61.3 148.6,61.3 149.1,61.3 149.7,61.2 150.2,61.2 150.8,61.2 151.4,61.2 151.9,61.1 152.5,61.1 153.1,61.1 153.6,61.1 154.2,61.1 154.7,61.0 155.3,61.0 155.9,61.0 156.4,60.9 157.0,60.9 157.6,60.9 158.1,60.9 158.7,60.9 159.2,60.9 159.8,60.8 160.4,60.8 160.9,60.8 161.5,60.7 162.0,60.7 162.6,60.7 163.2,60.7 163.7,60.7 164.3,60.6 164.9,60.6 165.4,60.6 166.0,60.6 166.5,60.5 167.1,60.5 167.7,60.5 168.2,60.5 168.8,60.5 169.4,60.5 169.9,60.4 170.5,60.4 171.0,60.4 171.6,60.4 172.2,60.3 172.7,60.3 173.3,61.0 173.9,60.9 174.4,60.6 175.0,60.5 175.5,60.4 176.1,60.2 176.7,60.1 177.2,60.1 177.8,60.0 178.3,59.8 178.9,59.7 179.5,59.7 180.0,59.6 180.6,59.6 181.2,59.5 181.7,59.4 182.3,59.3 182.8,59.3 183.4,59.2 184.0,59.2 184.5,59.1 185.1,59.1 185.7,59.1 186.2,59.0 186.8,58.9 187.3,58.9 187.9,58.8 188.5,58.7 189.0,58.7 189.6,58.6 190.1,58.6 190.7,58.6 191.3,58.5 191.8,58.4 192.4,58.4 193.0,58.3 193.5,58.1 194.1,58.1 194.6,58.1 195.2,58.0 195.8,57.9 196.3,57.9 196.9,57.8 197.5,57.8 198.0,57.7 198.6,57.7 199.1,57.6 199.7,57.6 200.3,57.5 200.8,57.5 201.4,57.5 201.9,57.4 202.5,57.4 203.1,57.3 203.6,57.3 204.2,57.3 204.8,57.2 205.3,57.2 205.9,57.2 206.4,57.1 207.0,57.1 207.6,57.1 208.1,57.1 208.7,57.0 209.3,57.0 209.8,56.9 210.4,56.9 210.9,56.8 211.5,56.8 212.1,56.8 212.6,56.7 213.2,56.7 213.7,56.7 214.3,56.7 214.9,56.6 215.4,56.6 216.0,56.6 216.6,56.5 217.1,56.5 217.7,56.5 218.2,56.5 218.8,56.4 219.4,56.3 219.9,56.3 220.5,56.3 221.1,56.2 221.6,56.2 222.2,56.2 222.7,56.1 223.3,56.1 223.9,56.1 224.4,56.1 225.0,56.0 225.5,56.0 226.1,56.0 226.7,55.9 227.2,55.9 227.8,55.9 228.4,55.8 228.9,55.8 229.5,55.8 230.0,55.7 230.6,55.7 231.2,55.6 231.7,55.6 232.3,55.6 232.9,55.6 233.4,55.5 234.0,55.5 234.5,55.5 235.1,55.4 235.7,55.4 236.2,55.4 236.8,55.4 237.3,55.3 237.9,55.3 238.5,55.3 239.0,55.3 239.6,55.3 240.2,55.2 240.7,55.2 241.3,55.2 241.8,55.2 242.4,55.1 243.0,55.1 243.5,55.1 244.1,55.0 244.7,55.0 245.2,55.0 245.8,54.9 246.3,54.9 246.9,54.9 247.5,54.9 248.0,54.8 248.6,54.8 249.1,54.8 249.7,54.8 250.3,54.7 250.8,54.7 251.4,54.7 252.0,54.6 252.5,54.6 253.1,54.6 253.6,54.6 254.2,54.5 254.8,54.5 255.3,54.5 255.9,54.4 256.5,54.4 257.0,54.4 257.6,54.3 258.1,54.3 258.7,54.3 259.3,54.2 259.8,54.2 260.4,54.2 260.9,54.1 261.5,54.1 262.1,54.1 262.6,54.0 263.2,54.0 263.8,54.0 264.3,54.0 264.9,53.9 265.4,53.9 266.0,53.9 266.6,53.8 267.1,53.8 267.7,53.8 268.3,53.8 268.8,53.7 269.4,53.7 269.9,53.7 270.5,53.7 271.1,53.6 271.6,53.6 272.2,53.6 272.7,53.6 273.3,53.6 273.9,53.5 274.4,53.5 275.0,53.5 275.6,53.5 276.1,53.4 276.7,53.4 277.2,53.4 277.8,53.4 278.4,53.4 278.9,53.3 279.5,55.6 280.1,55.4 280.6,55.2 281.2,55.1 281.7,55.0 282.3,54.9 282.9,54.7 283.4,54.6 284.0,54.4 284.5,54.4 285.1,54.2 285.7,54.2 286.2,54.1 286.8,54.0 287.4,53.9 287.9,53.9 288.5,53.8 289.0,53.7 289.6,53.6 290.2,53.5 290.7,53.4 291.3,53.4 291.9,53.4 292.4,53.3 293.0,53.3 293.5,53.2 294.1,53.2 294.7,53.2 295.2,53.2 295.8,53.2 296.3,53.2 296.9,53.2 297.5,53.1 298.0,53.1 298.6,53.0 299.2,53.0 299.7,52.9 300.3,52.9 300.8,52.9 301.4,52.8 302.0,52.8 302.5,52.8 303.1,52.7 303.7,52.7 304.2,52.6 304.8,52.6 305.3,52.5 305.9,52.5 306.5,52.5 307.0,52.4 307.6,52.4 308.1,52.4 308.7,52.4 309.3,52.3 309.8,52.3 310.4,52.2 311.0,52.2 311.5,52.2 312.1,52.1 312.6,52.1 313.2,52.1 313.8,52.0 314.3,52.0 314.9,52.0 315.5,52.0 316.0,51.9 316.6,51.9 317.1,51.9 317.7,51.8 318.3,51.8 318.8,51.8 319.4,51.7 319.9,51.7 320.5,51.7 321.1,51.6 321.6,51.6 322.2,51.6 322.8,51.6 323.3,51.6 323.9,51.5 324.4,51.5 325.0,51.5 325.6,51.4 326.1,51.4 326.7,51.4 327.3,51.4 327.8,51.3 328.4,51.3 328.9,51.3 329.5,51.3 330.1,51.2 330.6,51.2 331.2,51.2 331.7,51.2 332.3,51.1 332.9,51.1 333.4,51.1 334.0,51.1 334.6,51.0 335.1,51.0 335.7,51.0 336.2,51.0 336.8,50.9 337.4,50.9 337.9,50.9 338.5,50.8 339.1,50.8 339.6,50.8 340.2,50.7 340.7,50.7 341.3,50.7 341.9,50.7 342.4,50.7 343.0,50.6 343.5,50.6 344.1,50.6 344.7,50.5 345.2,50.4 345.8,50.4 346.4,50.4 346.9,50.4 347.5,50.3 348.0,50.3 348.6,50.3 349.2,50.3 349.7,50.2 350.3,50.2 350.9,50.2 351.4,50.2 352.0,50.2 352.5,50.2 353.1,50.1 353.7,50.1 354.2,50.1 354.8,50.1 355.3,50.1 355.9,50.1 356.5,50.1 357.0,50.1 357.6,50.0 358.2,50.0 358.7,50.0 359.3,50.0 359.8,49.9 360.4,49.9 361.0,49.9 361.5,49.9 362.1,49.9 362.7,49.9 363.2,49.9 363.8,49.8 364.3,49.8 364.9,49.8 365.5,49.8 366.0,49.8 366.6,49.8 367.1,49.7 367.7,49.7 368.3,49.7 368.8,49.7 369.4,49.7 370.0,49.7 370.5,49.6 371.1,49.6 371.6,49.6 372.2,49.6 372.8,49.6 373.3,49.6 373.9,49.6 374.5,49.6 375.0,49.6 375.6,49.5 376.1,49.5 376.7,49.5 377.3,49.5 377.8,49.5 378.4,50.1 378.9,50.0 379.5,49.8 380.1,49.7 380.6,49.6 381.2,49.5 381.8,49.4 382.3,49.3 382.9,49.2 383.4,49.0 384.0,49.0 384.6,48.9 385.1,48.9 385.7,48.8 386.3,48.7 386.8,48.7 387.4,48.7 387.9,48.6 388.5,48.6 389.1,48.5 389.6,48.5 390.2,48.4 390.7,48.4 391.3,48.3 391.9,48.3 392.4,48.2 393.0,48.2 393.6,48.2 394.1,48.1 394.7,48.1 395.2,48.1 395.8,48.0 396.4,48.0 396.9,47.9 397.5,47.9 398.1,47.8 398.6,47.8 399.2,47.8 399.7,47.7 400.3,47.7 400.9,47.7 401.4,47.7 402.0,47.6 402.5,47.6 403.1,47.6 403.7,47.5 404.2,47.5 404.8,47.4 405.4,47.4 405.9,47.4 406.5,47.3 407.0,47.3 407.6,47.3 408.2,47.3 408.7,47.2 409.3,47.2 409.9,47.2 410.4,47.1 411.0,47.1 411.5,47.1 412.1,47.0 412.7,47.0 413.2,47.0 413.8,47.0 414.3,47.0 414.9,46.9 415.5,46.9 416.0,46.9 416.6,120.0 417.2,46.8 417.7,46.8 418.3,46.7 418.8,46.7 419.4,46.7 420.0,46.7 420.5,46.7 421.1,46.6 421.7,46.6 422.2,46.5 422.8,46.5 423.3,46.4 423.9,46.4 424.5,46.4 425.0,46.3 425.6,46.3 426.1,46.3 426.7,46.3 427.3,46.2 427.8,46.2 428.4,46.2 429.0,46.1 429.5,46.1 430.1,46.0 430.6,46.0 431.2,45.9 431.8,45.9 432.3,45.9 432.9,45.9 433.5,45.8 434.0,45.8 434.6,45.8 435.1,45.7 435.7,45.7 436.3,45.7 436.8,45.6 437.4,45.6 438.0,45.5 438.5,45.5 439.1,45.5 439.6,45.5 440.2,45.5 440.8,45.4 441.3,45.4 441.9,45.4 442.4,45.4 443.0,45.3 443.6,45.3 444.1,45.2 444.7,45.2 445.3,45.2 445.8,45.2 446.4,45.2 446.9,45.1 447.5,45.1 448.1,45.1 448.6,45.1 449.2,45.0 449.8,45.0 450.3,45.1 450.9,44.8 451.4,44.7 452.0,44.5 452.6,44.4 453.1,44.3 453.7,44.3 454.2,44.2 454.8,44.1 455.4,44.0 455.9,43.9 456.5,43.8 457.1,43.9 457.6,43.6 458.2,43.5 458.7,43.3 459.3,43.2 459.9,43.1 460.4,43.1 461.0,43.0 461.6,42.9 462.1,42.8 462.7,42.7 463.2,42.6 463.8,42.5 464.4,42.4 464.9,42.4 465.5,42.3 466.0,42.3 466.6,42.2 467.2,42.2 467.7,42.1 468.3,42.1 468.9,42.0 469.4,41.9 470.0,41.8 470.5,41.8 471.1,41.7 471.7,41.6 472.2,41.6 472.8,41.5 473.4,41.5 473.9,41.5 474.5,41.4 475.0,41.4 475.6,41.3 476.2,41.7 476.7,41.5 477.3,41.2 477.8,41.1 478.4,40.9 479.0,40.6 479.5,40.1 480.1,41.6 480.7,40.9 481.2,40.5 481.8,40.3 482.3,40.1 482.9,39.9 483.5,39.7 484.0,39.6 484.6,39.5 485.2,39.3 485.7,39.0 486.3,38.9 486.8,38.8 487.4,38.6 488.0,38.5 488.5,38.3 489.1,37.9 489.6,37.8 490.2,37.7 490.8,37.6 491.3,37.5 491.9,37.4 492.5,37.4 493.0,37.3 493.6,37.3 494.1,37.2 494.7,37.1 495.3,37.1 495.8,37.0 496.4,37.0 497.0,37.0 497.5,36.9 498.1,36.8 498.6,36.8 499.2,36.7 499.8,36.7 500.3,36.7 500.9,36.6 501.4,36.5 502.0,36.5 502.6,36.4 503.1,36.4 503.7,36.4 504.3,36.3 504.8,36.3 505.4,36.2 505.9,36.2 506.5,36.1 507.1,36.1 507.6,36.1 508.2,36.0 508.8,36.0 509.3,35.9 509.9,35.9 510.4,35.9 511.0,35.8 511.6,35.8 512.1,35.8 512.7,35.8 513.2,35.7 513.8,35.6 514.4,35.6 514.9,35.6 515.5,35.5 516.1,35.5 516.6,35.4 517.2,35.3 517.7,35.3 518.3,35.3 518.9,35.3 519.4,35.2 520.0,35.2 520.6,35.1 521.1,35.1 521.7,35.1 522.2,35.0 522.8,35.0 523.4,34.9 523.9,34.9 524.5,34.9 525.0,34.9 525.6,34.8 526.2,37.0 526.7,36.6 527.3,36.4 527.9,36.2 528.4,36.1 529.0,36.0 529.5,35.8 530.1,35.7 530.7,35.6 531.2,35.5 531.8,35.5 532.4,35.4 532.9,35.4 533.5,35.3 534.0,35.2 534.6,35.0 535.2,35.0 535.7,34.9 536.3,34.9 536.8,34.8 537.4,34.7 538.0,34.6 538.5,34.4 539.1,34.4 539.7,34.3 540.2,34.2 540.8,34.1 541.3,34.0 541.9,33.9 542.5,33.9 543.0,33.8 543.6,33.7 544.2,33.7 544.7,33.6 545.3,33.6 545.8,33.5 546.4,33.5 547.0,33.4 547.5,33.3 548.1,33.3 548.6,33.2 549.2,33.2 549.8,33.1 550.3,33.0 550.9,33.0 551.5,33.6 552.0,33.5 552.6,33.4 553.1,33.2 553.7,32.9 554.3,32.6 554.8,32.4 555.4,32.4 556.0,32.3 556.5,32.3 557.1,32.1 557.6,31.9 558.2,31.8 558.8,31.7 559.3,31.6 559.9,31.6 560.4,31.5 561.0,31.4 561.6,31.2 562.1,31.1 562.7,31.0 563.3,30.9 563.8,30.8 564.4,30.7 564.9,30.7 565.5,30.6 566.1,30.5 566.6,30.4 567.2,30.3 567.8,30.3 568.3,30.2 568.9,30.1 569.4,30.0 570.0,30.0" />
  
  <!-- Punto finale luminoso -->
  <circle cx="570.0" cy="30.0" r="4" fill="#ffffff" stroke="#0366d6" stroke-width="2.5" />
</svg>