<svg width="600" height="150" viewBox="0 0 600 150" xmlns="http://www.w3.org/2000/svg">
  <defs>
    <filter id="shadow2" x="-2%" y="-2%" width="104%" height="108%">
      <feDropShadow dx="0" dy="2" stdDeviation="3" flood-opacity="0.1" />
    </filter>
    <linearGradient id="fillGrad" x1="0" y1="0" x2="0" y2="1">
      <stop offset="0%" stop-color="#0366d6" stop-opacity="0.3"/>
      <stop offset="100%" stop-color="#0366d6" stop-opacity="0.02"/>
    </linearGradient>
  </defs>
  <rect width="600" height="150" rx="12" fill="#ffffff" filter="url(#shadow2)" stroke="#e1e4e8" stroke-width="1"/>
  <text x="20" y="24" fill="#2b3137" font-family="-apple-system,BlinkMacSystemFont,'Segoe UI',Helvetica,Arial,sans-serif" font-size="14" font-weight="600">📈 Download Growth (Actual: 113.2k)</text>
  
  <!-- Area sotto la linea -->
  <polygon fill="url(#fillGrad)" points="30.0,66.8,120 30.0,66.8 32.6,66.7 35.3,66.6 37.9,66.6 40.5,66.5 43.2,66.5 45.8,66.4 48.4,66.3 51.1,66.3 53.7,66.2 56.3,66.1 59.0,66.1 61.6,66.0 64.2,66.0 66.9,42.8 69.5,42.8 72.1,42.8 74.8,120.0 77.4,42.7 80.0,42.7 82.7,42.6 85.3,42.6 88.0,42.6 90.6,42.6 93.2,42.5 95.9,42.5 98.5,42.5 101.1,42.5 103.8,42.4 106.4,42.4 109.0,42.3 111.7,42.3 114.3,42.2 116.9,42.2 119.6,42.1 122.2,42.1 124.8,42.1 127.5,42.1 130.1,42.1 132.7,42.0 135.4,42.0 138.0,41.9 140.6,41.9 143.3,41.8 145.9,41.8 148.5,41.7 151.2,41.7 153.8,41.7 156.4,41.7 159.1,41.6 161.7,41.6 164.3,41.6 167.0,41.5 169.6,41.5 172.2,41.4 174.9,41.4 177.5,41.3 180.1,41.3 182.8,41.3 185.4,41.3 188.0,41.3 190.7,41.2 193.3,41.2 196.0,41.2 198.6,41.1 201.2,41.1 203.9,41.1 206.5,41.0 209.1,41.0 211.8,41.0 214.4,40.9 217.0,40.9 219.7,40.9 222.3,40.9 224.9,40.9 227.6,40.8 230.2,40.8 232.8,40.8 235.5,40.8 238.1,40.6 240.7,40.4 243.4,40.3 246.0,40.1 248.6,40.1 251.3,40.0 253.9,39.9 256.5,39.8 259.2,39.7 261.8,39.6 264.4,39.5 267.1,39.5 269.7,39.3 272.3,39.2 275.0,39.0 277.6,38.9 280.2,38.8 282.9,38.7 285.5,38.6 288.1,38.6 290.8,38.5 293.4,38.3 296.0,38.2 298.7,38.1 301.3,38.0 304.0,38.0 306.6,37.9 309.2,37.9 311.9,37.8 314.5,37.8 317.1,37.7 319.8,37.7 322.4,37.5 325.0,37.4 327.7,37.3 330.3,37.3 332.9,37.2 335.6,37.2 338.2,37.1 340.8,37.1 343.5,37.1 346.1,37.0 348.7,36.9 351.4,36.9 354.0,37.2 356.6,37.0 359.3,36.8 361.9,36.6 364.5,36.4 367.2,36.0 369.8,35.5 372.4,37.0 375.1,36.1 377.7,35.9 380.3,35.6 383.0,35.3 385.6,35.1 388.2,35.0 390.9,34.9 393.5,34.6 396.1,34.4 398.8,34.1 401.4,34.0 404.0,33.7 406.7,33.4 409.3,33.2 412.0,33.1 414.6,33.0 417.2,32.9 419.9,32.7 422.5,32.7 425.1,32.6 427.8,32.6 430.4,32.5 433.0,32.4 435.7,32.4 438.3,32.3 440.9,32.3 443.6,32.2 446.2,32.1 448.8,32.1 451.5,32.0 454.1,31.9 456.7,31.9 459.4,31.8 462.0,31.7 464.6,31.7 467.3,31.6 469.9,31.6 472.5,31.5 475.2,31.4 477.8,31.4 480.4,31.4 483.1,31.3 485.7,31.2 488.3,31.2 491.0,31.1 493.6,31.1 496.2,31.0 498.9,31.0 501.5,30.9 504.1,30.9 506.8,30.8 509.4,30.8 512.0,30.7 514.7,30.7 517.3,30.6 520.0,30.6 522.6,30.5 525.2,30.5 527.9,30.4 530.5,30.4 533.1,30.3 535.8,30.3 538.4,30.2 541.0,30.2 543.7,30.1 546.3,30.1 548.9,30.1 551.6,30.0 554.2,32.2 556.8,31.7 559.5,31.6 562.1,31.4 564.7,31.2 567.4,31.0 570.0,30.9 570.0,30.9,120" />
  
  <!-- Linea principale -->
  <polyline fill="none" stroke="#0366d6" stroke-width="2.5" stroke-linecap="round" stroke-linejoin="round" points="30.0,66.8 32.6,66.7 35.3,66.6 37.9,66.6 40.5,66.5 43.2,66.5 45.8,66.4 48.4,66.3 51.1,66.3 53.7,66.2 56.3,66.1 59.0,66.1 61.6,66.0 64.2,66.0 66.9,42.8 69.5,42.8 72.1,42.8 74.8,120.0 77.4,42.7 80.0,42.7 82.7,42.6 85.3,42.6 88.0,42.6 90.6,42.6 93.2,42.5 95.9,42.5 98.5,42.5 101.1,42.5 103.8,42.4 106.4,42.4 109.0,42.3 111.7,42.3 114.3,42.2 116.9,42.2 119.6,42.1 122.2,42.1 124.8,42.1 127.5,42.1 130.1,42.1 132.7,42.0 135.4,42.0 138.0,41.9 140.6,41.9 143.3,41.8 145.9,41.8 148.5,41.7 151.2,41.7 153.8,41.7 156.4,41.7 159.1,41.6 161.7,41.6 164.3,41.6 167.0,41.5 169.6,41.5 172.2,41.4 174.9,41.4 177.5,41.3 180.1,41.3 182.8,41.3 185.4,41.3 188.0,41.3 190.7,41.2 193.3,41.2 196.0,41.2 198.6,41.1 201.2,41.1 203.9,41.1 206.5,41.0 209.1,41.0 211.8,41.0 214.4,40.9 217.0,40.9 219.7,40.9 222.3,40.9 224.9,40.9 227.6,40.8 230.2,40.8 232.8,40.8 235.5,40.8 238.1,40.6 240.7,40.4 243.4,40.3 246.0,40.1 248.6,40.1 251.3,40.0 253.9,39.9 256.5,39.8 259.2,39.7 261.8,39.6 264.4,39.5 267.1,39.5 269.7,39.3 272.3,39.2 275.0,39.0 277.6,38.9 280.2,38.8 282.9,38.7 285.5,38.6 288.1,38.6 290.8,38.5 293.4,38.3 296.0,38.2 298.7,38.1 301.3,38.0 304.0,38.0 306.6,37.9 309.2,37.9 311.9,37.8 314.5,37.8 317.1,37.7 319.8,37.7 322.4,37.5 325.0,37.4 327.7,37.3 330.3,37.3 332.9,37.2 335.6,37.2 338.2,37.1 340.8,37.1 343.5,37.1 346.1,37.0 348.7,36.9 351.4,36.9 354.0,37.2 356.6,37.0 359.3,36.8 361.9,36.6 364.5,36.4 367.2,36.0 369.8,35.5 372.4,37.0 375.1,36.1 377.7,35.9 380.3,35.6 383.0,35.3 385.6,35.1 388.2,35.0 390.9,34.9 393.5,34.6 396.1,34.4 398.8,34.1 401.4,34.0 404.0,33.7 406.7,33.4 409.3,33.2 412.0,33.1 414.6,33.0 417.2,32.9 419.9,32.7 422.5,32.7 425.1,32.6 427.8,32.6 430.4,32.5 433.0,32.4 435.7,32.4 438.3,32.3 440.9,32.3 443.6,32.2 446.2,32.1 448.8,32.1 451.5,32.0 454.1,31.9 456.7,31.9 459.4,31.8 462.0,31.7 464.6,31.7 467.3,31.6 469.9,31.6 472.5,31.5 475.2,31.4 477.8,31.4 480.4,31.4 483.1,31.3 485.7,31.2 488.3,31.2 491.0,31.1 493.6,31.1 496.2,31.0 498.9,31.0 501.5,30.9 504.1,30.9 506.8,30.8 509.4,30.8 512.0,30.7 514.7,30.7 517.3,30.6 520.0,30.6 522.6,30.5 525.2,30.5 527.9,30.4 530.5,30.4 533.1,30.3 535.8,30.3 538.4,30.2 541.0,30.2 543.7,30.1 546.3,30.1 548.9,30.1 551.6,30.0 554.2,32.2 556.8,31.7 559.5,31.6 562.1,31.4 564.7,31.2 567.4,31.0 570.0,30.9" />
  
  <!-- Punto finale luminoso -->
  <circle cx="570.0" cy="30.9" r="4" fill="#ffffff" stroke="#0366d6" stroke-width="2.5" />
</svg>