<svg width="600" height="150" viewBox="0 0 600 150" xmlns="http://www.w3.org/2000/svg">
  <defs>
    <filter id="shadow2" x="-2%" y="-2%" width="104%" height="108%">
      <feDropShadow dx="0" dy="2" stdDeviation="3" flood-opacity="0.1" />
    </filter>
    <linearGradient id="fillGrad" x1="0" y1="0" x2="0" y2="1">
      <stop offset="0%" stop-color="#0366d6" stop-opacity="0.3"/>
      <stop offset="100%" stop-color="#0366d6" stop-opacity="0.02"/>
    </linearGradient>
  </defs>
  <rect width="600" height="150" rx="12" fill="#ffffff" filter="url(#shadow2)" stroke="#e1e4e8" stroke-width="1"/>
  <text x="20" y="24" fill="#2b3137" font-family="-apple-system,BlinkMacSystemFont,'Segoe UI',Helvetica,Arial,sans-serif" font-size="14" font-weight="600">📈 Download Growth (Actual: 113.1k)</text>
  
  <!-- Area sotto la linea -->
  <polygon fill="url(#fillGrad)" points="30.0,66.8,120 30.0,66.8 32.8,66.7 35.5,66.6 38.3,66.5 41.0,66.5 43.8,66.4 46.5,66.3 49.3,66.3 52.0,66.2 54.8,66.1 57.6,66.1 60.3,66.0 63.1,66.0 65.8,65.9 68.6,42.7 71.3,42.7 74.1,42.7 76.8,120.0 79.6,42.6 82.3,42.6 85.1,42.6 87.9,42.5 90.6,42.5 93.4,42.5 96.1,42.5 98.9,42.4 101.6,42.4 104.4,42.4 107.1,42.3 109.9,42.3 112.7,42.2 115.4,42.2 118.2,42.1 120.9,42.1 123.7,42.1 126.4,42.0 129.2,42.0 131.9,42.0 134.7,42.0 137.4,41.9 140.2,41.9 143.0,41.8 145.7,41.8 148.5,41.7 151.2,41.7 154.0,41.7 156.7,41.6 159.5,41.6 162.2,41.6 165.0,41.5 167.8,41.5 170.5,41.5 173.3,41.4 176.0,41.4 178.8,41.3 181.5,41.3 184.3,41.3 187.0,41.2 189.8,41.2 192.6,41.2 195.3,41.2 198.1,41.2 200.8,41.1 203.6,41.1 206.3,41.1 209.1,41.0 211.8,41.0 214.6,40.9 217.3,40.9 220.1,40.9 222.9,40.9 225.6,40.9 228.4,40.8 231.1,40.8 233.9,40.8 236.6,40.8 239.4,40.7 242.1,40.7 244.9,40.7 247.7,40.5 250.4,40.3 253.2,40.2 255.9,40.0 258.7,40.0 261.4,39.9 264.2,39.8 266.9,39.7 269.7,39.6 272.4,39.5 275.2,39.4 278.0,39.4 280.7,39.2 283.5,39.1 286.2,38.9 289.0,38.8 291.7,38.7 294.5,38.6 297.2,38.5 300.0,38.5 302.8,38.4 305.5,38.3 308.3,38.2 311.0,38.0 313.8,37.9 316.5,37.9 319.3,37.8 322.0,37.8 324.8,37.7 327.6,37.7 330.3,37.6 333.1,37.6 335.8,37.4 338.6,37.3 341.3,37.3 344.1,37.2 346.8,37.1 349.6,37.1 352.3,37.0 355.1,37.0 357.9,37.0 360.6,36.9 363.4,36.9 366.1,36.8 368.9,37.1 371.6,36.9 374.4,36.7 377.1,36.5 379.9,36.3 382.7,35.9 385.4,35.4 388.2,36.9 390.9,36.0 393.7,35.8 396.4,35.5 399.2,35.2 401.9,35.0 404.7,34.9 407.4,34.8 410.2,34.5 413.0,34.3 415.7,34.1 418.5,33.9 421.2,33.6 424.0,33.3 426.7,33.1 429.5,33.0 432.2,32.9 435.0,32.8 437.8,32.6 440.5,32.6 443.3,32.6 446.0,32.5 448.8,32.4 451.5,32.3 454.3,32.3 457.0,32.2 459.8,32.2 462.6,32.1 465.3,32.0 468.1,32.0 470.8,31.9 473.6,31.8 476.3,31.8 479.1,31.7 481.8,31.6 484.6,31.6 487.3,31.5 490.1,31.5 492.9,31.4 495.6,31.4 498.4,31.3 501.1,31.3 503.9,31.2 506.6,31.1 509.4,31.1 512.1,31.0 514.9,31.0 517.7,31.0 520.4,30.9 523.2,30.8 525.9,30.8 528.7,30.7 531.4,30.7 534.2,30.7 536.9,30.6 539.7,30.5 542.4,30.5 545.2,30.4 548.0,30.4 550.7,30.3 553.5,30.3 556.2,30.2 559.0,30.2 561.7,30.1 564.5,30.1 567.2,30.0 570.0,30.0 570.0,30.0,120" />
  
  <!-- Linea principale -->
  <polyline fill="none" stroke="#0366d6" stroke-width="2.5" stroke-linecap="round" stroke-linejoin="round" points="30.0,66.8 32.8,66.7 35.5,66.6 38.3,66.5 41.0,66.5 43.8,66.4 46.5,66.3 49.3,66.3 52.0,66.2 54.8,66.1 57.6,66.1 60.3,66.0 63.1,66.0 65.8,65.9 68.6,42.7 71.3,42.7 74.1,42.7 76.8,120.0 79.6,42.6 82.3,42.6 85.1,42.6 87.9,42.5 90.6,42.5 93.4,42.5 96.1,42.5 98.9,42.4 101.6,42.4 104.4,42.4 107.1,42.3 109.9,42.3 112.7,42.2 115.4,42.2 118.2,42.1 120.9,42.1 123.7,42.1 126.4,42.0 129.2,42.0 131.9,42.0 134.7,42.0 137.4,41.9 140.2,41.9 143.0,41.8 145.7,41.8 148.5,41.7 151.2,41.7 154.0,41.7 156.7,41.6 159.5,41.6 162.2,41.6 165.0,41.5 167.8,41.5 170.5,41.5 173.3,41.4 176.0,41.4 178.8,41.3 181.5,41.3 184.3,41.3 187.0,41.2 189.8,41.2 192.6,41.2 195.3,41.2 198.1,41.2 200.8,41.1 203.6,41.1 206.3,41.1 209.1,41.0 211.8,41.0 214.6,40.9 217.3,40.9 220.1,40.9 222.9,40.9 225.6,40.9 228.4,40.8 231.1,40.8 233.9,40.8 236.6,40.8 239.4,40.7 242.1,40.7 244.9,40.7 247.7,40.5 250.4,40.3 253.2,40.2 255.9,40.0 258.7,40.0 261.4,39.9 264.2,39.8 266.9,39.7 269.7,39.6 272.4,39.5 275.2,39.4 278.0,39.4 280.7,39.2 283.5,39.1 286.2,38.9 289.0,38.8 291.7,38.7 294.5,38.6 297.2,38.5 300.0,38.5 302.8,38.4 305.5,38.3 308.3,38.2 311.0,38.0 313.8,37.9 316.5,37.9 319.3,37.8 322.0,37.8 324.8,37.7 327.6,37.7 330.3,37.6 333.1,37.6 335.8,37.4 338.6,37.3 341.3,37.3 344.1,37.2 346.8,37.1 349.6,37.1 352.3,37.0 355.1,37.0 357.9,37.0 360.6,36.9 363.4,36.9 366.1,36.8 368.9,37.1 371.6,36.9 374.4,36.7 377.1,36.5 379.9,36.3 382.7,35.9 385.4,35.4 388.2,36.9 390.9,36.0 393.7,35.8 396.4,35.5 399.2,35.2 401.9,35.0 404.7,34.9 407.4,34.8 410.2,34.5 413.0,34.3 415.7,34.1 418.5,33.9 421.2,33.6 424.0,33.3 426.7,33.1 429.5,33.0 432.2,32.9 435.0,32.8 437.8,32.6 440.5,32.6 443.3,32.6 446.0,32.5 448.8,32.4 451.5,32.3 454.3,32.3 457.0,32.2 459.8,32.2 462.6,32.1 465.3,32.0 468.1,32.0 470.8,31.9 473.6,31.8 476.3,31.8 479.1,31.7 481.8,31.6 484.6,31.6 487.3,31.5 490.1,31.5 492.9,31.4 495.6,31.4 498.4,31.3 501.1,31.3 503.9,31.2 506.6,31.1 509.4,31.1 512.1,31.0 514.9,31.0 517.7,31.0 520.4,30.9 523.2,30.8 525.9,30.8 528.7,30.7 531.4,30.7 534.2,30.7 536.9,30.6 539.7,30.5 542.4,30.5 545.2,30.4 548.0,30.4 550.7,30.3 553.5,30.3 556.2,30.2 559.0,30.2 561.7,30.1 564.5,30.1 567.2,30.0 570.0,30.0" />
  
  <!-- Punto finale luminoso -->
  <circle cx="570.0" cy="30.0" r="4" fill="#ffffff" stroke="#0366d6" stroke-width="2.5" />
</svg>