<svg width="600" height="150" viewBox="0 0 600 150" xmlns="http://www.w3.org/2000/svg">
  <defs>
    <filter id="shadow2" x="-2%" y="-2%" width="104%" height="108%">
      <feDropShadow dx="0" dy="2" stdDeviation="3" flood-opacity="0.1" />
    </filter>
    <linearGradient id="fillGrad" x1="0" y1="0" x2="0" y2="1">
      <stop offset="0%" stop-color="#0366d6" stop-opacity="0.3"/>
      <stop offset="100%" stop-color="#0366d6" stop-opacity="0.02"/>
    </linearGradient>
  </defs>
  <rect width="600" height="150" rx="12" fill="#ffffff" filter="url(#shadow2)" stroke="#e1e4e8" stroke-width="1"/>
  <text x="20" y="24" fill="#2b3137" font-family="-apple-system,BlinkMacSystemFont,'Segoe UI',Helvetica,Arial,sans-serif" font-size="14" font-weight="600">📈 Download Growth (Actual: 104.1k)</text>
  
  <!-- Area sotto la linea -->
  <polygon fill="url(#fillGrad)" points="30.0,62.2,120 30.0,62.2 34.7,62.1 39.4,62.0 44.1,61.9 48.8,61.9 53.5,61.8 58.2,61.7 62.9,61.6 67.6,61.6 72.3,61.5 77.0,61.4 81.7,61.4 86.3,61.3 91.0,61.3 95.7,36.1 100.4,36.1 105.1,36.0 109.8,120.0 114.5,36.0 119.2,35.9 123.9,35.9 128.6,35.9 133.3,35.8 138.0,35.8 142.7,35.8 147.4,35.8 152.1,35.7 156.8,35.7 161.5,35.6 166.2,35.6 170.9,35.5 175.6,35.5 180.3,35.5 185.0,35.4 189.7,35.4 194.3,35.3 199.0,35.3 203.7,35.3 208.4,35.3 213.1,35.2 217.8,35.2 222.5,35.1 227.2,35.1 231.9,35.0 236.6,35.0 241.3,34.9 246.0,34.9 250.7,34.9 255.4,34.8 260.1,34.8 264.8,34.8 269.5,34.7 274.2,34.7 278.9,34.6 283.6,34.6 288.3,34.5 293.0,34.5 297.7,34.5 302.3,34.4 307.0,34.4 311.7,34.4 316.4,34.4 321.1,34.4 325.8,34.3 330.5,34.3 335.2,34.2 339.9,34.2 344.6,34.1 349.3,34.1 354.0,34.1 358.7,34.1 363.4,34.1 368.1,34.0 372.8,34.0 377.5,34.0 382.2,34.0 386.9,33.9 391.6,33.9 396.3,33.9 401.0,33.7 405.7,33.5 410.3,33.3 415.0,33.2 419.7,33.1 424.4,33.0 429.1,33.0 433.8,32.9 438.5,32.7 443.2,32.6 447.9,32.5 452.6,32.5 457.3,32.3 462.0,32.1 466.7,32.0 471.4,31.8 476.1,31.7 480.8,31.6 485.5,31.5 490.2,31.5 494.9,31.4 499.6,31.2 504.3,31.1 509.0,31.0 513.7,30.9 518.3,30.8 523.0,30.8 527.7,30.7 532.4,30.7 537.1,30.6 541.8,30.5 546.5,30.5 551.2,30.3 555.9,30.2 560.6,30.2 565.3,30.1 570.0,30.0 570.0,30.0,120" />
  
  <!-- Linea principale -->
  <polyline fill="none" stroke="#0366d6" stroke-width="2.5" stroke-linecap="round" stroke-linejoin="round" points="30.0,62.2 34.7,62.1 39.4,62.0 44.1,61.9 48.8,61.9 53.5,61.8 58.2,61.7 62.9,61.6 67.6,61.6 72.3,61.5 77.0,61.4 81.7,61.4 86.3,61.3 91.0,61.3 95.7,36.1 100.4,36.1 105.1,36.0 109.8,120.0 114.5,36.0 119.2,35.9 123.9,35.9 128.6,35.9 133.3,35.8 138.0,35.8 142.7,35.8 147.4,35.8 152.1,35.7 156.8,35.7 161.5,35.6 166.2,35.6 170.9,35.5 175.6,35.5 180.3,35.5 185.0,35.4 189.7,35.4 194.3,35.3 199.0,35.3 203.7,35.3 208.4,35.3 213.1,35.2 217.8,35.2 222.5,35.1 227.2,35.1 231.9,35.0 236.6,35.0 241.3,34.9 246.0,34.9 250.7,34.9 255.4,34.8 260.1,34.8 264.8,34.8 269.5,34.7 274.2,34.7 278.9,34.6 283.6,34.6 288.3,34.5 293.0,34.5 297.7,34.5 302.3,34.4 307.0,34.4 311.7,34.4 316.4,34.4 321.1,34.4 325.8,34.3 330.5,34.3 335.2,34.2 339.9,34.2 344.6,34.1 349.3,34.1 354.0,34.1 358.7,34.1 363.4,34.1 368.1,34.0 372.8,34.0 377.5,34.0 382.2,34.0 386.9,33.9 391.6,33.9 396.3,33.9 401.0,33.7 405.7,33.5 410.3,33.3 415.0,33.2 419.7,33.1 424.4,33.0 429.1,33.0 433.8,32.9 438.5,32.7 443.2,32.6 447.9,32.5 452.6,32.5 457.3,32.3 462.0,32.1 466.7,32.0 471.4,31.8 476.1,31.7 480.8,31.6 485.5,31.5 490.2,31.5 494.9,31.4 499.6,31.2 504.3,31.1 509.0,31.0 513.7,30.9 518.3,30.8 523.0,30.8 527.7,30.7 532.4,30.7 537.1,30.6 541.8,30.5 546.5,30.5 551.2,30.3 555.9,30.2 560.6,30.2 565.3,30.1 570.0,30.0" />
  
  <!-- Punto finale luminoso -->
  <circle cx="570.0" cy="30.0" r="4" fill="#ffffff" stroke="#0366d6" stroke-width="2.5" />
</svg>